<?xml version="1.0" encoding="UTF-8" standalone="no"?>
<!-- Created with Inkscape (http://www.inkscape.org/) -->

<svg
   width="379.90045mm"
   height="299.83276mm"
   viewBox="0 0 379.90045 299.83276"
   version="1.1"
   id="svg5"
   inkscape:version="1.1.1 (3bf5ae0d25, 2021-09-20)"
   sodipodi:docname="hongo-olddivisionS2.svg"
   xmlns:inkscape="http://www.inkscape.org/namespaces/inkscape"
   xmlns:sodipodi="http://sodipodi.sourceforge.net/DTD/sodipodi-0.dtd"
   xmlns="http://www.w3.org/2000/svg"
   xmlns:svg="http://www.w3.org/2000/svg">
  <sodipodi:namedview
     id="namedview7"
     pagecolor="#505050"
     bordercolor="#eeeeee"
     borderopacity="1"
     inkscape:pageshadow="0"
     inkscape:pageopacity="0"
     inkscape:pagecheckerboard="0"
     inkscape:document-units="mm"
     showgrid="false"
     inkscape:zoom="0.92578716"
     inkscape:cx="874.93112"
     inkscape:cy="528.73924"
     inkscape:window-width="1920"
     inkscape:window-height="1017"
     inkscape:window-x="-8"
     inkscape:window-y="-8"
     inkscape:window-maximized="1"
     inkscape:current-layer="layer7" />
  <defs
     id="defs2" />
  <g
     inkscape:groupmode="layer"
     id="layer7"
     inkscape:label="streets"
     style="display:inline"
     transform="translate(-27.029009,-5.6539463)"
     sodipodi:insensitive="true">
    <path
       style="fill:none;stroke:#000000;stroke-width:0.264583px;stroke-linecap:butt;stroke-linejoin:miter;stroke-opacity:1"
       d="m 32.73793,165.28113 3.890166,2.04612 5.557366,2.67764 7.426661,2.32398 9.498045,2.62712 7.931877,1.81878 7.2751,1.31356 2.39977,0.40417 0.580999,0.22103 0.435748,0.33471 0.599942,0.60625 0.656778,0.73257 3.66281,4.39537 2.323991,2.7029 3.33442,4.16802 2.879725,3.68808 3.460723,3.68806 1.313561,1.36409 1.111472,1.01043 1.212517,0.85886 1.490385,0.75782 1.818774,0.4547 3.05655,0.22734 4.26907,-0.10104 2.39977,-0.1263 1.08621,-0.0253 3.66281,-0.37891 2.19769,-0.50522"
       id="path1500"
       inkscape:label="Meijirodori" />
    <path
       style="fill:none;stroke:#000000;stroke-width:0.265;stroke-linecap:butt;stroke-linejoin:miter;stroke-miterlimit:4;stroke-dasharray:none;stroke-opacity:1"
       d="m 260.39299,231.34929 -0.21435,-6.75185 -0.39296,-6.39462 -0.46441,-5.6444 -0.53587,-2.78648 -1.46468,-6.39462 -1.25035,-6.14454 -0.57158,-2.64359 -0.2858,-0.78593 -0.35724,-0.50014 -0.92882,-0.57158 -3.108,-2.03628 -2.42924,-1.67903 -3.17945,-2.67931 -5.35861,-4.64413 -3.76889,-3.28662 -2.39352,-1.87551 -3.75103,-3.12586 -4.3762,-3.73317 -4.85848,-4.55482 -1.30393,-1.25035 -1.19676,-0.94669 -1.53613,-0.80379 -2.42924,-1.25034 -2.16131,-1.16104 -2.23276,-1.25034 -1.69689,-1.69689 -1.62545,-1.554 -2.33993,-2.35779 -1.62544,-1.62545 -1.50042,-1.37538 -1.32179,-0.85738 -2.00055,-1.44682 -2.89365,-1.94697 -1.96483,-1.55399 -1.55399,-1.67904 -2.25062,-2.10772 -1.71476,-1.91124 -2.072,-2.33993 -1.76834,-2.42924 -1.85765,-2.46496 -4.59055,-6.32317 -2.51855,-3.03655 -13.82523,-12.96784"
       id="path1615"
       inkscape:label="Senkawadori" />
    <path
       style="fill:none;stroke:#000000;stroke-width:0.264583px;stroke-linecap:butt;stroke-linejoin:miter;stroke-opacity:1"
       d="m 288.47214,132.28635 5.78731,-0.14289 4.21544,-0.39297 4.64413,-0.64303 2.73288,-0.25007 4.57269,-0.23221 2.42033,-0.15182 1.1521,-0.27686 5.25142,-1.80407 5.18001,-1.73262 3.56984,-1.13912"
       id="path6212"
       inkscape:label="Nedzuuramonzaka" />
    <path
       style="fill:none;stroke:#000000;stroke-width:0.264583px;stroke-linecap:butt;stroke-linejoin:miter;stroke-opacity:1"
       d="m 306.84239,174.14765 c 0.12632,-0.0253 6.7699,-0.98517 6.7699,-0.98517 l 7.14877,-1.06095 4.87535,-0.75782 0.68204,-0.20209 1.69246,-1.08621 2.82922,-2.07138 5.98678,-4.42064 4.67325,-3.83963 6.82041,-5.91102 6.69409,-5.58263 8.10871,-6.41623 3.10705,-2.42503"
       id="path6327"
       inkscape:label="Kototoidori" />
    <path
       style="fill:none;stroke:#000000;stroke-width:0.264583px;stroke-linecap:butt;stroke-linejoin:miter;stroke-opacity:1"
       d="m 305.44108,168.7428 -1.87552,0.0893 -2.71503,0.10717 -0.98239,-0.0893 -0.75023,-0.26793 -0.76806,-0.50013 -0.85738,-0.82166 -0.96454,-1.14317 -3.80463,-4.25117 -4.01897,-4.41192 -2.33992,-2.60786 -2.10772,-2.69717 -3.23302,-4.60841 -3.17945,-4.82276 -1.554,-3.14372 -1.92911,-4.03682 -1.83978,-4.01896 -2.48282,-5.25145 -2.37567,-5.09068 -2.73288,-5.98379 -2.16132,-4.8942 -1.57186,-3.41165 -0.518,-0.91097 -0.58945,-0.60731 -0.57158,-0.518 -4.09041,-2.1613 -2.26848,-1.28607 -4.23331,-2.85793 -2.62572,-1.857653 -3.25089,-2.464964 -2.26848,-1.571861 -2.94724,-2.071997 -3.84034,-2.42924 -3.69745,-2.464964 -4.41192,-3.465237 -2.42924,-1.857653 -5.05496,-3.697446 -2.84007,-1.893377"
       id="path6442"
       inkscape:label="Nakasendo" />
    <path
       style="fill:none;stroke:#000000;stroke-width:0.264583px;stroke-linecap:butt;stroke-linejoin:miter;stroke-opacity:1"
       d="m 225.88168,204.05638 -0.75782,3.83964 -1.11148,5.80997 -1.21252,4.69851 -1.46512,6.41623 -1.26304,6.36571 -0.55573,3.03129 -0.10104,0.55573 -4.14277,0.80835 -6.56779,0.75782 -6.51728,1.97034"
       id="path6557"
       inkscape:label="Andouzaka" />
    <path
       style="fill:none;stroke:#000000;stroke-width:0.264583px;stroke-linecap:butt;stroke-linejoin:miter;stroke-opacity:1"
       d="m 264.73271,114.68383 7.62876,-2.72816 2.72817,-1.162 1.16197,-1.11147 5.20372,-3.03129 6.56781,-4.04172 7.93186,-4.951107 7.9824,-1.414603 11.61997,-1.768253 6.92145,-1.060952 6.41622,-0.404173 1.97033,0.858867 3.89017,1.818775"
       id="path6672"
       inkscape:label="Dangozaka" />
    <path
       style="fill:none;stroke:#000000;stroke-width:0.264583px;stroke-linecap:butt;stroke-linejoin:miter;stroke-opacity:1"
       d="m 271.95729,99.274769 1.66722,-2.425031 3.08182,-3.081813 3.03127,-3.081811 1.21254,-1.212517 0.90937,-1.667211 1.76826,-3.536505 3.33441,-6.97197 3.486,-7.275097 2.07137,-5.05215 2.98077,-7.477183 0.85886,-3.485986 0.85886,-3.940677 1.11149,-5.05215 1.31355,-2.020861 1.51564,-2.778683 1.46513,-2.930248 1.01044,-2.677641"
       id="path6787" />
    <path
       style="fill:none;stroke:#000000;stroke-width:0.264583px;stroke-linecap:butt;stroke-linejoin:miter;stroke-opacity:1"
       d="m 123.35533,212.91566 3.78675,-0.57159 6.00165,0.53586 3.108,0.42869 1.21462,0.42869 2.9651,1.67903 3.35807,1.96483 2.78648,1.71476 2.03627,0.57158 1.85765,0.0714 1.67904,-0.39297 1.71475,-1.50041 2.28635,-1.60758 2.50068,-1.21462 2.35779,-0.71448 2.28635,-0.46442 2.42924,-0.35724 2.75075,-0.1429 2.03628,0.39297 1.75048,0.0714 1.85765,-0.53586 2.10772,-0.78593 2.32207,-0.60731 2.10772,-0.0357 1.32179,0.2858 1.39324,0.7502 1.57186,0.82166 1.82193,0.85737 1.71476,0.67876 1.42896,0.1429 1.25035,-0.0357 1.10745,0.0357 1.28606,0.1429 1.35752,0.39296 1.60758,0.82166 1.32179,1.07172 2.072,1.60758 1.96483,1.00028 2.21489,1.35751 2.03628,1.57186 2.53641,2.072 1.85765,2.25062 1.28607,1.9291 2.072,3.85821 1.19676,2.14344 1.47361,1.42004 3.83141,3.58134 3.108,3.07227 2.25062,2.28634"
       id="path7050" />
    <path
       style="fill:none;stroke:#000000;stroke-width:0.264583px;stroke-linecap:butt;stroke-linejoin:miter;stroke-opacity:1"
       d="m 324.14601,260.94361 -9.64959,2.5766 -9.90222,2.57659 -1.26304,-0.0505 -3.08181,-1.26304 c 0,0 -10.40744,-4.34486 -10.60953,-4.34486 -0.20209,0 -9.1949,-3.43546 -9.1949,-3.43546 l -9.1444,-5.55737 -8.6897,-6.61832 -1.91982,-1.01043 -13.3882,-0.15156 -10.91265,1.11147 -10.64954,1.18366 -24.46291,18.46921"
       id="path7165" />
    <path
       style="fill:none;stroke:#000000;stroke-width:0.264583px;stroke-linecap:butt;stroke-linejoin:miter;stroke-opacity:1"
       d="m 378.5326,301.58287 0.12612,-7.3456 0.25263,-8.63917 1.26301,-7.57822 1.06096,-5.40581 0.60626,-4.90059 0.40418,-5.75944 0.20209,-5.65841 0.30313,-9.8517 0.0505,-7.02249 -0.15155,-3.03129 -0.75782,-6.8204 -0.35367,-6.12573"
       id="path7280"
       inkscape:label="Shoheibashidori" />
    <path
       style="fill:none;stroke:#000000;stroke-width:0.265;stroke-linecap:butt;stroke-linejoin:miter;stroke-miterlimit:4;stroke-dasharray:none;stroke-opacity:1"
       d="m 181.65707,131.10746 -2.39352,1.9291 -2.78648,2.25062 -3.67958,3.21517 -1.60759,0.96455 -2.42924,1.10745 -2.53641,2.85792 -3.75103,4.34048 -5.96592,6.98407"
       id="path7395"
       inkscape:label="Yotatezaka" />
    <path
       style="fill:none;stroke:#000000;stroke-width:0.264583px;stroke-linecap:butt;stroke-linejoin:miter;stroke-opacity:1"
       d="m 303.81569,161.87326 6.1961,-2.06537 -1.7485,-9.981 -1.28606,-6.43034 -1.14785,-5.32666 -0.85272,-1.92533 -0.90276,-1.8956 -0.20653,-2.32354 0.20653,-3.20132 -0.31327,-5.32531 -0.581,-3.83963 -0.80832,-3.05655 -0.73258,-1.89456 -8.77253,-15.223595 -8.88473,-16.200787"
       id="path7654"
       inkscape:label="namnSoseki" />
    <path
       style="fill:none;stroke:#000000;stroke-width:0.264583px;stroke-linecap:butt;stroke-linejoin:miter;stroke-opacity:1"
       d="m 256.14182,144.43255 2.17917,-6.89475 2.53641,-9.1811 2.35779,-8.82385 1.51752,-4.84902"
       id="path5821" />
    <path
       style="fill:none;stroke:#000000;stroke-width:0.264583px;stroke-linecap:butt;stroke-linejoin:miter;stroke-opacity:1"
       d="m 144.74413,145.80508 -3.73859,4.90059 -3.03129,3.9912 -1.71773,1.81877 -1.91982,1.01043 -2.07138,0.65678 -3.08182,0.75783 -3.99119,0.9599 -4.34485,0.95991 -3.68807,0.95991 -2.82921,0.40418 -2.1219,0.0505 -1.61669,-0.30312 -1.76825,-0.40418 -1.61669,-0.45469 h -0.90939 l -0.90939,0.30313 -3.63755,1.31356"
       id="path5936" />
    <path
       style="fill:none;stroke:#000000;stroke-width:0.264583px;stroke-linecap:butt;stroke-linejoin:miter;stroke-opacity:1"
       d="m 266.85906,209.05745 5.78729,-1.00027 4.14401,-0.71448 3.50096,-0.57159 1.21463,-0.28579 1.28606,-0.85738 1.57186,-1.64331 1.7862,-2.57213 1.85764,-2.50069 2.07201,-2.92938 2.35778,-3.42951 2.00057,-2.92938 1.14316,-1.71476 0.50014,-1.7862 0.64304,-3.07227 0.42868,-1.92911 0.4287,-0.71448 1.2146,-1.10744 2.072,-1.64331 2.17919,-1.71476 1.67902,-0.8931 2.11579,-0.90046"
       id="path6051" />
  </g>
</svg>
