<?xml version="1.0" encoding="UTF-8" standalone="no"?>
<!-- Created with Inkscape (http://www.inkscape.org/) -->

<svg
   width="379.90045mm"
   height="299.83276mm"
   viewBox="0 0 379.90045 299.83276"
   version="1.1"
   id="svg5"
   inkscape:version="1.1.1 (3bf5ae0d25, 2021-09-20)"
   sodipodi:docname="bunkyoMapS1.svg"
   xmlns:inkscape="http://www.inkscape.org/namespaces/inkscape"
   xmlns:sodipodi="http://sodipodi.sourceforge.net/DTD/sodipodi-0.dtd"
   xmlns="http://www.w3.org/2000/svg"
   xmlns:svg="http://www.w3.org/2000/svg">
  <sodipodi:namedview
     id="namedview7"
     pagecolor="#505050"
     bordercolor="#eeeeee"
     borderopacity="1"
     inkscape:pageshadow="0"
     inkscape:pageopacity="0"
     inkscape:pagecheckerboard="0"
     inkscape:document-units="mm"
     showgrid="false"
     inkscape:zoom="0.46289358"
     inkscape:cx="448.26718"
     inkscape:cy="430.98459"
     inkscape:window-width="1920"
     inkscape:window-height="1017"
     inkscape:window-x="-8"
     inkscape:window-y="-8"
     inkscape:window-maximized="1"
     inkscape:current-layer="layer8" />
  <defs
     id="defs2" />
  <g
     inkscape:groupmode="layer"
     id="layer8"
     inkscape:label="mainstreets"
     style="display:inline"
     transform="translate(-27.029009,-5.6539463)"
     sodipodi:insensitive="true">
    <path
       style="fill:none;stroke:#f00000;stroke-width:1.2;stroke-linecap:butt;stroke-linejoin:miter;stroke-miterlimit:4;stroke-dasharray:none;stroke-opacity:1"
       d="m 378.5326,301.58287 -6.00165,-0.17862 -5.32289,-4.82274 -7.23413,-6.12669 -23.45288,-17.87991 -7.50205,-5.78731 -2.42924,-2.71503 -1.82192,-1.89337 -2.53643,-5.28717 -1.03601,-4.96565 -0.39295,-3.21517 -0.7502,-7.50206 -0.85739,-6.32317 -1.07172,-8.21654 -0.77038,-5.55941 -3.98468,-18.49741 -2.80633,-12.3178 -3.33447,-14.38933 -1.29458,-5.82239 -2.11698,-8.20984 -3.05448,-10.04582 -2.35781,-4.8942 -1.57186,-2.64359 -1.5004,-2.17917 -1.48085,-1.71705 -13.26999,-19.7759 -2.61107,-4.3713 -3.82249,-6.8233 -1.75048,-7.39489 -1.96482,-12.18192 -1.25034,-7.537786 -0.75023,-1.536137 -1.32178,-1.500412 -1.08958,-1.053859 -1.75564,-2.160733 -1.54884,-3.215746 -2.75076,-7.180545 -2.10772,-5.751582 -3.108,-6.001647 -2.67931,-5.179996 -2.62439,-3.341206 -4.72453,-6.221923 -5.76182,-7.58444 -3.75103,-5.358616 -6.46606,-10.788679 -3.17945,-5.6801328"
       id="path1036"
       inkscape:label="Hongodori">
      <title
         id="title4">Hongodōri</title>
    </path>
    <path
       style="fill:none;stroke:#00f100;stroke-width:1.2;stroke-linecap:butt;stroke-linejoin:miter;stroke-miterlimit:4;stroke-dasharray:none;stroke-opacity:1"
       d="m 406.89754,234.63591 -17.36193,-1.85765 -12.28907,-1.21462 c 0,0 -2.85793,-0.21435 -3.21517,-0.1429 -0.35724,0.0714 -2.57214,0.57159 -2.57214,0.57159 l -3.14373,1.50041 -3.35807,2.14345 -4.00108,2.50068 -3.7153,1.42897 -3.07229,0.35724 -5.43007,-0.57159 -8.288,-0.78593 h -8.35943 -10.07419 l -11.28882,0.78593 -12.2891,0.78593 -7.78785,0.35724 h -1.71474 l -17.29047,-9.35971 -10.07421,0.28579 -15.50426,-0.0714 -2.07199,-0.64303 -4.2869,-4.0011 -7.78785,-7.28772 -5.50151,-3.21517 -10.2171,-5.50151 -4.57268,-3.78675 -3.42952,-2.92938 -10.28854,-8.57378 -13.14647,-10.28855 -3.21517,-5.21572 -3.00082,-6.21599 -1.85766,-2.57213 -3.92965,-3.50097 -5.00137,-4.07254 -7.8593,-6.216 -6.216,-4.85848 -7.07337,-5.35861 -9.9313,-7.50206 -3.21517,-2.42924 -4.28689,-5.00138 -3.14372,-3.92965 -2.50069,-2.92937 -3.00083,-9.57407 -5.21571,-16.647428 -2.71504,-7.787854 -7.07337,-5.287166 -6.430338,-4.929928 -3.000824,-2.500686"
       id="path1778"
       inkscape:label="Kasugadori">
      <title
         id="title7">Kasugadōri</title>
    </path>
    <path
       style="fill:none;stroke:#0000ff;stroke-width:1.2;stroke-linecap:butt;stroke-linejoin:miter;stroke-miterlimit:4;stroke-dasharray:none;stroke-opacity:1"
       d="m 92.176498,138.07529 2.172425,5.68367 2.298729,6.06258 2.147163,5.48159 2.425035,6.01206 2.39977,5.96153 2.09664,5.12794 1.79352,4.21855 2.72816,6.41623 2.2482,5.22897 3.53651,8.86653 2.82921,6.76988 2.85446,6.79514 0.63152,1.61669"
       id="path1154"
       inkscape:label="Otowadori">
      <title
         id="title10">Otowadōri</title>
    </path>
    <path
       style="fill:none;stroke:#ffe11b;stroke-width:1.2;stroke-linecap:butt;stroke-linejoin:miter;stroke-miterlimit:4;stroke-dasharray:none;stroke-opacity:1"
       d="m 400.83766,218.70762 -7.78031,1.91982 -5.15319,1.26304 -4.09223,1.11147 -1.97035,0.4547 h -0.85886 l -0.75782,-0.30313 -3.99121,-3.43547 -0.90938,-1.46512 -0.60626,-1.81877 -0.45469,-2.42504 -0.65678,-7.72979 -0.40417,-4.29433 -0.80836,-4.19328 -1.56615,-6.92145 -1.31357,-4.54693 -1.4146,-4.59746 -0.80835,-2.17243 -1.26302,-2.52607 -1.56617,-2.87973 -2.57659,-4.49641 -3.03131,-5.40581 -2.42504,-3.38494 -3.33441,-4.09224 -4.90058,-5.70893 -3.99119,-4.64798 -4.59748,-5.70893 -5.35527,-6.41623 -4.19328,-5.55737 -1.06095,-1.51564 -0.4926,-0.73256 -0.14523,-0.3726 -0.11369,-0.36628 -0.10735,-0.47364 -0.0379,-0.61889 0.0884,-0.75782 0.12632,-0.66941 0.25259,-0.85887 0.83363,-3.83963 1.26301,-5.25424 1.91982,-8.63918 1.8188,-7.628748 1.71772,-8.083441 1.76824,-7.376141 0.85887,-3.587028 0.10104,-0.757822 0.30313,-1.263039 -0.15155,-1.06095 -0.15158,-1.111475 -0.45469,-1.717731 -1.11146,-5.658408 -0.25262,-1.111475 -0.75782,-1.465122 -1.61669,-2.425033 -1.66721,-2.98077 -2.42504,-4.092241 -1.01042,-1.313561 -2.42504,-1.717731 -3.63754,-2.475555 -4.85005,-3.637547 -6.56781,-4.546936 -6.71936,-4.64798 -7.93189,-5.759453 -5.00163,-3.334419 -4.04172,-2.778683 -1.26304,-0.65678 -0.95991,-0.202086 H 285.396 l -1.36406,0.101043 -17.32888,2.374511 -7.07302,1.010431 -3.63755,0.303127 -3.78911,0.606259 -1.11148,0.353652 -1.01043,0.555737 -0.7073,0.555736 -6.01206,4.546936 -3.53651,3.233377 -14.75228,11.923075 -13.99445,11.468386 -4.64798,3.890155 -1.66721,2.374511 -2.17243,2.778683 -10.35691,11.923078 -5.55736,6.315188 -2.87973,2.879725 -3.03129,2.323989 -10.559,8.133966 -5.45632,4.49641 -3.13234,2.67764 -3.48598,4.29433 -3.08181,2.82921 -3.18286,2.07138 -5.45632,3.5365 -2.62712,1.36409 -2.52607,0.9599 -3.7386,1.21252 -3.08181,0.7073 -4.79954,0.55574 -3.83964,0.30313 -3.38494,0.15156 -1.66721,0.35365 -4.95111,1.97034 -7.17405,2.93025 -7.70453,3.15759 -17.177316,7.07301 -8.083441,2.98077 -3.612288,1.81878 -2.627119,1.5409 -3.384941,2.14717 -4.269068,1.9956 -5.911017,2.62712 -3.915415,1.69247 -9.498044,4.37011 -6.037321,2.85446 -3.536508,1.59143 -0.126301,0.12631"
       id="path1039"
       inkscape:label="Shinobazudori">
      <title
         id="title13">Shinobazudōri</title>
    </path>
    <path
       style="fill:none;stroke:#0000fd;stroke-width:1.2;stroke-linecap:butt;stroke-linejoin:miter;stroke-miterlimit:4;stroke-dasharray:none;stroke-opacity:1"
       d="m 284.50677,285.00689 v -4.42979 l -2.57214,-10.78868 -3.57241,-13.28936 -2.92939,-12.36054 -3.92964,-15.93295 -3.85821,-15.28991 -3.07227,-16.07585 -1.64331,-10.28854 -1.00027,-6.14455 -1.85766,-11.50316 -2.35779,-16.0044 -0.92882,-4.92992 -0.64304,-3.53669 -0.60731,-1.96482 -0.78593,-1.78621 -0.96455,-1.60758 -3.17944,-3.85821 -5.07283,-5.96592 -3.28661,-3.85821 -9.14537,-10.10992 -4.89421,-5.96592 -2.00055,-2.46497 -2.07199,-3.28661 -1.35752,-2.60786 -1.85765,-3.822483 -0.89311,-2.715032 -0.57158,-3.572409 -0.75021,-5.001374 -0.46441,-3.858205 -0.60731,-3.858204 -0.64304,-1.57186 -1.42896,-1.786205 -2.53641,-1.857653 -7.82358,-7.680682 -7.00192,-7.716406 -7.71641,-9.038198 -5.75158,-6.608959 -2.9651,-3.358067 -3.03655,-2.857929 -0.71448,-0.750205"
       id="path2176"
       inkscape:label="Hakusandori">
      <title
         id="title16">Hakusandōri</title>
    </path>
  </g>
</svg>
