<?xml version="1.0" encoding="UTF-8" standalone="no"?>
<!-- Map of the old provinces of Japan (Gokishichido and Ezo). Interactive design: Ilian Häggmark. Original path data: Ash_Crow/百楽兎 (Wikipedia, shared with CC-BY-SA) -->
<!-- 44.832802 px in length corresponds to 100 km i.e. 1 km ~ 0.45 -->
<svg
   xmlns="http://www.w3.org/2000/svg"
   xmlns:xlink="http://www.w3.org/1999/xlink"
   version="1.1"
   width="744"
   height="845" 
   viewBox=" -20 -30 770 920"
>
<style id="mainStyle"> 
.path {
    fill: #2d54a1;fill-opacity:0.3;fill-rule:evenodd;stroke:#787878;stroke-width:0.8311879;stroke-linecap:butt;stroke-linejoin:miter;stroke-miterlimit:4;stroke-opacity:1;stroke-dasharray:none;display:inline;
}
.path:hover {
    fill: #fcf5e3;fill-opacity:1;fill-rule:evenodd;stroke:#787878;stroke-width:0.8311879;stroke-linecap:butt;stroke-linejoin:miter;stroke-miterlimit:4;stroke-opacity:1;stroke-dasharray:none;display:inline;   
}  
.ans {
    display:none;
}
#hideAll {
    display:block;
}
#showAll {
    display:none;
}
.grouplabels {
	font-size:15px;
}
.non-selectable {
    -webkit-touch-callout: none;
    -webkit-user-select: none;
    -khtml-user-select: none;
    -moz-user-select: none;
    -ms-user-select: none;
    user-select: none;
}
</style>

   <path id="background" style="fill:#fcf5e3;" d="M -40,-30 L -40,890 L 770,890 L 770,-30 L -40,-30"></path>
   <path id="frame1" style="fill:none;stroke:black;stroke-linecap:square;" d="M -25,-15 L -25,875 L 755,875 L 755,-15 L -25,-15"></path>   
   <path id="frame2" style="fill:none;stroke:black;stroke-linecap:square;" d="M -30,-20 L -30,880 L 760,880 L 760,-20 L -30,-20"></path>       

   <text x="40" y="70" style="font-size:30px;font-weight:none;">Provinces of</text>
   <text x="70" y="105" style="font-size:40px;font-weight:none;">Japan</text>
   <text x="240" y="90" style="font-size:45px;font-weight:none;">令制国</text>

   <text id="author" style="font-size:10px;fill:#666666;" x="-20" y="-2">Created by: Ilian Häggmark (most path data from Wikipedia, shared with CC-BY-SA)</text>
   <a xlink:href="http://haeggmark.com" target="_blank"><rect x="20" y="-13" width="80" height="16" rx="3" style="fill-opacity:0"></rect></a>
   <a xlink:href="https://commons.wikimedia.org/wiki/File:Provinces_of_Japan.svg" target="_blank"><rect x="180" y="-13" width="43" height="16" rx="3" style="fill-opacity:0"></rect></a>

   <g onclick="showAll()" id="showAll"> 
   <circle cx="700" cy="650" r="20" style="fill:black;fill-opacity:0.1;"/>
   <text x="700" y="644" style="font-size:10px;" dominant-baseline="middle" text-anchor="middle" class="non-selectable">Show</text>
   <text x="700" y="656" style="font-size:10px;" dominant-baseline="middle" text-anchor="middle" class="non-selectable">Kanji</text>
   </g>
   <g onclick="hideAll()" id="hideAll"> 
   <circle cx="700" cy="650" r="20" style="fill:black;fill-opacity:0.1;"/>
   <text x="700" y="644" style="font-size:10px;" dominant-baseline="middle" text-anchor="middle" class="non-selectable">Hide</text>
   <text x="700" y="656" style="font-size:10px;" dominant-baseline="middle" text-anchor="middle" class="non-selectable">Kanji</text>
   </g>

<!-- Text elements connected to regions and path elements for provinces and lakes -->-->
<g id="pathsGroup">  

   <text style="font-size:20px;" x="65" y="160">Gokishichidō</text>
   <text style="font-size:20px;" x="270" y="160">五畿七道</text>
    
   <text id="kinai" class="grouplabels" x="85" y="180">Kinai</text> 
   <text id="kinai" class="grouplabels" x="296" y="180">機内</text>

   <text id="toukaidou" class="grouplabels" x="85" y="200">Tōkaidō</text>
   <text id="toukaidou" class="grouplabels" x="289" y="200">東海道</text>
  
	<text id="tousandou" class="grouplabels" x="85" y="220">Tōsandō</text>
    <text id="tousandou" class="grouplabels" x="289" y="220">東山道</text>

	<text id="hokurikudou" class="grouplabels" x="85" y="240">Hokurikudō</text>
    <text id="hokurikudou" class="grouplabels" x="289" y="240">北陸道</text>

	<text id="sanindou" class="grouplabels" x="85" y="260">Sanindō</text>
    <text id="sanindou" class="grouplabels" x="289" y="260">山陰道</text>

	<text id="sanyoudou" class="grouplabels" x="85" y="280">Sanyōdō</text>	
    <text id="sanyoudou" class="grouplabels" x="289" y="280">山陽道</text>	

	<text id="nankaidou" class="grouplabels" x="85" y="300">Nankaidō</text>	
    <text id="nankaidou" class="grouplabels" x="289" y="300">南海道</text>	

	<text id="saikaidou" class="grouplabels" x="85" y="320">Saikaidō</text>
    <text id="saikaidou" class="grouplabels" x="289" y="320">西海道</text>

    <rect id="data" x="85" y="330" width="90" height="18" rx="3" style="fill-opacity:0"><title>Data</title></rect>   

<path id="satsuma" d="m 65.926672,670.10137 -3.625,4.84375 0,3.125 3.75,1.5 1.25,-1.03125 0,-8.4375 -1.375,0 z m 9.1875,5.875 -3.09375,2.5625 -3.625,0 -1.78125,2.21875 0,11.625 -1.75,1.40625 0,3.65625 5.0625,4.5 0,7.40625 -2.96875,5.40625 -2.09375,0 -2.0625,-2.28125 -2.21875,1.59375 1.875,2.78125 2.0625,4.96875 10.25,2.09375 2.21875,4.375 3.8125,0 3.6875,-2.09375 0,-2.78125 -4.375,-3.65625 0,-6.71875 -1.75,0 0,-2.4375 4.71875,-6.09375 0,-4.28125 -1.71875,-3.6875 0,-1.375 7.28125,-6.71875 2.062497,0 0,-8.875 -4.718747,-2.21875 -3.09375,0 -1.875,2.09375 -3,0 -2.90625,-3.46875 z m -25.40625,13.3125 -1.03125,1.375 1.84375,2.78125 3.8125,0 -2.40625,-4.15625 -2.21875,0 z m -4.5,6.21875 -4.5,4.71875 0,2.0625 3.46875,-0.6875 3.78125,-6.09375 -2.75,0 z"></path>
<path id="hyuuga" d="m 119.91916,646.33492 3.46328,0 0,-1.38531 3.94815,0 0,4.71007 7.82702,0 0,-2.77063 6.58023,0 0,4.84859 -6.4417,5.67979 -2.2165,0 0,4.15594 1.38531,0 0,3.11695 -2.14724,0 -11.77516,27.56773 0,6.37244 1.38532,0 -1.73165,7.82702 c -3.04768,3.46328 -5.26418,7.73466 -6.6495,12.81414 l -0.0693,0.13853 -4.36374,-1.73164 -1.87017,-3.25548 2.4243,-6.09538 -6.58024,-2.77063 -2.6321,-6.92656 -2.077965,0 -2.562829,-1.52384 0,-2.77063 1.731641,0 0,-3.32475 -7.272893,-6.99583 0,-4.433 10.736176,0 2.77063,-2.2165 2.77062,0 0,-3.11696 -1.73164,-1.93944 2.56283,-2.42429 0,-2.56283 -3.46328,-1.93944 0,-5.88758 2.07797,-2.2165 1.73164,0 10.11278,-13.5068 2.07797,2.56282"></path>
<path id="higo" d="m 107.20823,625.30091 7.27289,7.48069 3.32475,11.0825 -10.11278,13.5068 -1.73165,0 -2.07797,2.2165 0,5.88758 3.46329,1.93944 0,2.56283 -2.56283,2.4243 1.73164,1.93944 0,3.11695 -2.77063,0 -2.77062,2.2165 -10.736178,0 -4.710065,-2.2165 -3.116954,0 -1.870172,2.07797 -2.978423,0 -2.909158,-3.46328 0,-3.11696 4.640799,-3.11695 0,-2.4243 4.017408,-4.50227 0,-4.15594 4.155939,-3.32475 0,-1.73164 -6.580237,0 0,-1.73164 5.679783,-3.46328 0,-4.50227 -2.909157,-1.73164 0,-2.2165 -4.017408,-3.46328 4.710064,-1.93944 4.294471,-6.37244 4.017407,0 7.272894,3.94814 5.541247,0 0,-5.19492 1.73165,-1.73164 z M 0,0 m 77.908856,658.20209 0,-3.46328 -2.770626,2.97842 -2.07797,0 -3.463282,2.70136 0,3.53255 1.939438,1.03898 4.294471,0 3.463282,-5.05639 -1.385313,-1.73164 m -9.835722,9.21233 0.484859,-11.0825 -5.194923,0 -5.333456,6.92656 0,3.11696 3.255486,2.2165 -3.809611,0 0,3.32475 2.07797,2.90915 5.88758,-7.41142 2.632095,0 z"></path>
<path id="oosumi" d="m 90.600583,684.23177 0,4.4375 -2.093749,0 -7.25,6.71875 0,1.375 1.71875,3.6875 5.1875,0 3.968749,2.40625 0,1.875 -1.875,4.375 -2.093749,0 -1.71875,-3 -2.78125,0 0,4.03125 3.468749,0 0,4.625 1.031251,1.75 1.375,0.34375 0,8.65625 -1.375,0 0,2.28125 -5.1875,5.53125 2.062499,2.90625 1.531251,-2.1875 3.34375,0 8.656249,-5.5625 0,-2.40625 6.562497,0 0,-1.75 -2.0625,-4.15625 -1.9375,0 0,-2.0625 2.28125,-3.46875 4.15625,0 2.40625,-6.09375 -6.5625,-2.78125 -2.625,-6.90625 -2.093746,0 -2.562501,-1.53125 0,-2.78125 1.718751,0 0,-3.3125 -7.250001,-7 z m 6.906251,63.4375 0,2.78125 -3.4375,4.15625 0,6.21875 -5.343751,5.40625 0,1.53125 1.375001,1.59375 0,2.78125 3.249999,-0.375 1.937501,-1.5625 0,-5.6875 5.562496,-10.40625 0,-6.4375 -3.343746,0 z m -23.6875,18.5625 -5.406251,2.90625 0,3.8125 2.78125,3.6875 6.093751,0.125 3.468749,-3.8125 0,-3.46875 -3.468749,-3.25 -3.46875,0 z"></path>
<path id="chikugo" d="m 90.858736,614.21984 9.004534,5.88758 0,12.26002 -7.272893,-3.94815 -4.017408,0 -4.29447,6.37244 -4.710064,1.93944 0,-6.58023 -3.463283,-4.57154 c 4.155939,-3.37093 8.196435,-7.15745 12.121489,-11.35956 l 2.632095,0"></path>
<path id="hizen" d="m 57.353093,603.74142 -2.21875,4.375 -3.125,0 0,2.4375 3.59375,0 0,3.78125 -3.46875,0 -1.84375,-2.0625 -3.6875,0 -2.21875,-1.375 -1.375,-1.59375 0,2.625 -3.34375,0 -4.96875,9 3.25,0 3.65625,-3.3125 0,-2.09375 3.46875,-2.0625 0,4.15625 -2.0625,2.40625 5.6875,3.8125 2.96875,0 0,3.8125 0.0625,0.0625 6.15625,2.21875 1.40625,1.53125 0,5.53125 1.875,1.9375 0,2.5625 -2.9375,0 0,-2.21875 -5.1875,0 0,-7.59375 -1.9375,0 0,-2.3125 -3.46875,0 0,1.9375 -2.40625,1.875 1.71875,2.09375 0,4.5 1.75,1.9375 2.625,0 2.21875,4.15625 -3.8125,7.28125 2.75,0 6.59375,-7.84375 6.25,0 0,-1.375 4.125,0 0,3.8125 -3.78125,2.625 0,1.53125 2.96875,1.9375 2.90625,0 0,-1.75 2.4375,0 4,-4.15625 0,-3.3125 -3.125,-4.5 -3.8125,0 -1.71875,1.375 -2.28125,0 -1.375,-1.71875 3.65625,-2.4375 1.53125,0 0,-2.21875 -2.5625,-4.84375 0,-3.46875 3.125,-1.59375 1.84375,-2.5625 3.46875,3.0625 c 4.155939,-3.37093 8.199947,-7.17288 12.125,-11.375 l -7.96875,0 -11.21875,-5.875 0,-2.90625 -4.15625,1.875 0,2.0625 -2.625,0 0,-2.75 -2.90625,-3 -2.625,0 z m -34.4375,10.46875 0,2.21875 3.125,0.34375 0,-2.5625 -3.125,0 z m -2.96875,4.15625 2.40625,2.21875 0,-2.21875 -2.40625,0 z m 4.34375,3.125 -2.0625,3.8125 -1.9375,2.0625 0,3.8125 -2.78125,0 1.375,2.78125 0,3.46875 1.40625,2.75 1.9375,-3.3125 0,-4.65625 3.25,0 0,-3.46875 -2.90625,2.09375 0,-3.6875 1.71875,0 0,-5.65625 z m -10.71875,13.625 0,2.65625 -3,-1.59375 0,2.625 2.3125,2.40625 2.21875,-2.96875 0,-3.125 -1.53125,0 z m -12.3437487,3.46875 0,4.71875 1.5937486,2.0625 -2.40624898,2.78125 3.93749898,0 1.59375,2.09375 0,-3.46875 3.125,0 0,1.71875 3.0937501,0 0,-2.40625 -2.4062501,-2.4375 0,-2.78125 -1.9375,-1.9375 -1.40625,2.09375 -2.5625,0 -2.6249986,-2.4375 z"></path>
<path id="chikuzen" d="m 86.32254,588.88941 -2.770626,3.60182 0,2.97842 -3.116954,2.77063 0,2.42429 -1.731641,1.73164 -3.671079,0 -1.731642,-2.63209 -1.731641,0 -2.562829,2.77063 0,5.74905 11.221035,5.88758 10.597645,0 9.004534,5.88758 0,-5.40273 1.939438,-1.87017 -6.303174,-5.88758 0,-3.46328 5.887584,-10.25132 0.55412,-3.60181 -2.770624,-3.67108 -4.848596,0 -2.424298,2.97842 -5.541252,0"></path>
<path id="buzen" d="m 108.32202,598.7542 2.07797,3.67108 c 4.75624,0.69266 8.79673,2.35503 12.12148,4.98713 l 0,5.05639 1.73165,0 0,3.94814 -3.11696,3.11696 -2.97842,0 -11.77516,-2.77063 -10.943975,-9.83572 0,-3.46328 5.887585,-10.25132 0.55412,-3.60181 6.44171,-3.32476 -1.38532,4.15594 1.38532,8.31188"></path>
<path id="bungo" d="m 137.88875,606.11995 0,7.96555 -4.84859,4.29448 -4.15594,0 -1.73164,2.28576 2.56282,3.25549 7.48069,0 0,1.59311 6.92657,0 -3.67108,4.50226 3.46328,2.4243 0,1.87017 4.36374,0 0,1.73165 -3.32475,0 0,4.71006 5.19492,0 -4.6408,6.37244 -3.80961,2.28577 0,-2.4243 -6.58024,0 0,2.77062 -7.82701,0 0,-4.71006 -3.94815,0 0,1.38531 -3.46328,0 -2.07797,-2.56283 -3.32475,-11.0825 -7.27289,-7.48069 -1.73164,1.73164 0,5.19493 -5.541255,0 0,-17.66275 1.939435,-1.87017 4.6408,3.94814 11.77516,2.77063 2.97842,0 3.11696,-3.11695 0,-3.94815 -1.73164,0 0,-5.05639 2.07797,0 3.46328,-4.84859 2.90916,-1.52385 2.63209,0 4.15594,5.19492"></path>
<path id="iki" d="m 52.672524,586.71294 -3.116954,2.07797 0,4.15594 2.770626,2.63209 3.116954,-2.77062 0,-3.11696 -2.770626,-2.97842"></path>
<path id="tsushima" d="m 42.161727,544.54158 -4,1.9375 0,3.9375 0.5625,2.78125 -2.65625,0 0,5.53125 -0.625,1.0625 4.78125,3.09375 0,-7.0625 2.4375,-2.75 2.0625,0 0,-4.875 1.75,-1.9375 0,-1.71875 -4.3125,0 z m -9.53125,17.3125 -1.875,5.1875 0,5.5625 2.5625,1.375 5.75,-9.5 -6.4375,-2.625 z"></path>
<path id="tosa" d="m 216.81002,613.66845 -13.16047,8.45041 -4.01741,10.73617 -5.67978,6.58024 -2.97842,0 0,7.27289 -2.56283,1.93944 0,1.73164 2.77062,1.38532 0,2.77062 -2.63209,0 -2.07797,-3.11695 -7.0651,0 -4.36373,-1.73164 0,-3.32475 2.77062,0 0,-2.56283 -1.38531,-3.32475 -2.07797,-9.35087 4.15594,0 7.13436,-5.88758 0,-8.45041 6.23391,0 c 2.90916,-7.66539 7.18054,-13.5068 12.81414,-17.52421 l 6.37244,0 3.11696,1.59311 2.28577,-3.11695 8.24261,-0.34633 8.31188,3.11696 1.73164,-1.38532 2.97842,0 0,5.88758 5.33345,2.77063 0,3.80961 1.73165,3.11695 3.11695,0 c -3.09387,2.67828 -4.91786,7.59614 -5.47199,14.75359 l -13.71459,-14.06093 -11.9137,-1.73164"></path>
<path id="awa1" d="m 255.45332,582.37157 -11.98296,0 -6.92657,4.98712 -2.90915,-2.77062 -10.25132,4.2252 -2.2165,2.2165 0,6.58024 3.60181,0 8.31188,3.11695 1.73164,-1.38531 2.97843,0 0,5.88758 5.33345,2.77063 0,3.80961 1.73164,3.11695 3.11696,0 c 2.95533,-4.15594 7.59613,-8.15026 13.92239,-11.98296 l 3.94814,-1.73164 -3.46328,-2.07797 1.93944,-2.07797 0,-1.87017 -1.93944,-3.32475 -2.07797,0 0,-6.02611 2.6321,-2.77063 -1.93944,-2.4243 -5.54125,0 0,1.73165"></path>
<path id="sanuki" d="m 247.47423,562.2916 -2.0625,2.09375 -2.4375,0 0.34375,2.28125 2.09375,0 1.53125,1.71875 4.6875,0 0,-6.09375 -4.15625,0 z m -16.125,7.15625 -2.28125,2.0625 0,2.09375 -6.9375,5.1875 -4.15625,-1.9375 1.59375,4.5 0,5.0625 -2.5625,2.28125 6.5,0 10.25,-4.25 2.90625,2.78125 6.9375,-4.96875 12,0 0,-1.75 -7.28125,-3.3125 0,-2.5625 -1.375,-1.125 -3.46875,0 -0.6875,-3.25 -3,2.96875 -2.75,0 -5.6875,-3.78125 z"></path>
<path id="iyo" d="m 204.62757,599.16975 c -5.6336,4.01741 -9.90498,9.85881 -12.81414,17.52421 l -6.23391,0 0,8.45041 -7.13436,5.88758 -4.15594,0 2.07797,9.35086 1.38531,3.32475 -7.06509,0 -5.0564,-7.27289 3.11696,-2.4243 -1.87017,-5.40272 3.25548,0 0,-2.2165 -2.4243,-2.4243 2.6321,-1.59311 -4.8486,0 0,-5.88758 -2.07797,-2.2165 -6.92656,4.29447 -1.59311,1.93944 -5.05639,0 3.46328,-4.36374 4.01741,0 22.165,-15.9311 0,-6.71877 2.2165,0 1.93944,-5.74904 7.0651,-4.8486 6.58024,9.35086 5.40272,0 11.42883,-1.38531 2.63209,-2.35503 6.51097,0 -2.2165,2.2165 0,6.58023 -4.64079,0.34633 -2.28577,3.11696 -3.11696,-1.59311 -6.37244,0"></path>
<path id="awaji" d="m 277.81509,566.87181 2.07796,-4.29447 -2.07796,-1.24678 -9.90499,9.90498 0,2.4243 -2.77063,1.87017 0,2.97843 1.93944,3.11695 4.29447,0 1.73164,-2.07797 2.4243,0 1.38531,-2.07797 -2.77062,-2.28576 0,-4.98713 3.67108,-3.32475"></path>
<path id="kii" d="m 333.72011,583.25913 -7.0651,-3.11696 0,9.69719 -1.59311,2.77063 -3.60181,0 -5.19493,4.15594 0,2.42429 -8.6582,0 -4.36374,-3.60181 0,-3.32475 -2.2165,-3.25549 6.23391,-7.48069 0,-6.92656 -4.01741,0 -2.07797,1.38531 -4.8486,0 -15.37697,1.73164 2.56283,2.07797 0,2.77063 2.07797,0 -3.60182,4.50227 0,1.93943 2.4243,1.73165 -2.28576,2.56282 -1.73165,0 0,4.15594 10.59765,8.17335 3.94814,1.38531 0,1.73164 -2.2165,0 -0.2078,1.52385 2.07797,0 0,4.01741 11.42884,5.33345 3.67107,0 0,2.07797 2.90916,0 6.44171,-7.96555 7.96555,-16.62375 5.88758,-2.4243 0,-4.15594 -2.07797,-1.38531 2.90916,-2.4243 0,-3.46328"></path>
<path id="nagato" d="m 141.83134,565.5898 -1.93944,-2.56283 0,-10.94397 -4.01741,0 -12.95268,12.81414 -4.0174,0 0,-2.56283 -2.90916,0 0,1.52385 -4.71007,0 -2.77062,-1.38532 0,3.46329 -4.29447,0 0,5.40272 1.87017,0 0,3.25548 -2.90916,2.77063 1.87018,2.97842 0,6.37244 3.94814,-3.60181 3.53255,0 3.80961,3.94814 5.33345,0 2.28577,-2.90916 2.2165,0 0,2.2165 2.77062,0 0,-2.90915 6.44171,-6.58024 0,-3.67108 4.29447,0 3.39402,-3.18622 -1.24678,-1.31605 0,-3.11695"></path>
<path id="suou" d="m 144.10174,571.08313 -1.17752,-1.31605 -3.39401,3.18622 -4.29447,0 0,3.67108 -6.44171,6.58024 2.97842,2.77062 4.29447,-2.28576 5.54126,0 0,6.09537 2.28576,0 2.4243,-2.07797 8.31188,6.02611 4.84859,-5.54125 0,-8.79674 -6.58023,-10.04351 -3.46328,1.73164 -5.33346,0"></path>
<path id="aki" d="m 182.16966,543.85567 -6.23391,3.11695 -12.12149,0 -4.6408,3.80961 -1.59311,7.96555 -1.87017,1.73164 0,2.2165 -2.63209,2.07797 0,4.71007 6.58023,10.04352 1.73164,-6.09538 6.71877,-5.05639 3.67108,2.28576 0,1.87018 3.25549,4.36373 6.58023,0 5.88758,-5.40272 6.92657,0 0,-3.46328 -4.15594,-8.45041 -6.92656,-3.32475 0,-2.77063 3.11695,-3.25548 -4.29447,-6.37244"></path>
<path id="bingo" d="m 198.43935,533.99504 -1.59311,-1.38532 -6.92657,0 -7.75775,8.79674 0,2.49356 4.29447,6.37244 -3.11696,3.25549 0,2.77063 6.92657,3.32475 4.15594,8.45041 0,3.46328 2.83989,0 0,-2.07797 5.54125,0 1.38531,-2.2165 1.52385,0 0,2.56283 2.77062,0 6.09538,-4.8486 0,-3.80961 -5.74905,-15.7233 0,-8.17335 -5.40272,-4.91786 -1.38531,1.66238 -3.60181,0"></path>
<path id="bitchuu" d="m 216.42493,529.24024 -6.02611,5.67978 -4.29447,0.0693 2.70136,2.42429 0,8.17335 5.74905,15.7233 0,3.80961 5.19492,0 7.0651,-5.33345 0,-6.09538 -5.67979,-5.88758 0,-10.52838 -4.71006,-8.03481"></path>
<path id="bizen" d="m 248.94364,543.14969 -3.94814,1.59311 -23.89665,-0.55413 0,3.46328 5.67979,5.88758 0,6.09538 -3.53255,2.70136 0,2.97842 3.39402,0 0,2.28577 2.42429,0 4.6408,-1.59311 4.71007,-5.67978 4.29447,0 7.48069,-7.2729 -1.24679,-4.71006 0,-5.19492"></path>
<path id="mimasaka" d="m 253.95095,529.84049 0,4.98713 -5.0564,5.19492 0,3.11696 -3.94814,1.59311 -23.89665,-0.55413 0,-7.06509 -4.71006,-8.03482 6.09538,-5.81831 14.54578,0 1.31605,-1.24679 3.67108,1.03899 5.40272,6.78803 6.58024,0"></path>
<path id="harima" d="m 277.26928,532.81476 4.57153,6.78804 3.25549,1.59311 -3.60182,19.53291 -13.36827,-9.14306 -3.25548,0 0,1.38531 -4.15594,0 0,-2.07797 -4.71007,0 -2.07797,2.07797 -3.94814,0 -1.24678,-4.71007 0,-8.31187 5.05639,-5.19493 0,-4.98712 5.19493,-3.32476 0,2.07797 6.02611,-0.34632 2.4243,2.42429 9.90498,0 -0.0693,2.2165"></path>
<path id="iwami" d="m 180.2138,526.23721 1.87017,8.79674 0,8.866 -6.23391,3.11696 -12.12148,0 -4.6408,3.80961 -1.59311,7.96555 -1.87018,1.73164 0,2.2165 -2.63209,2.07797 0,4.71006 -3.46328,1.73165 -5.33346,0 -2.4243,-2.6321 0,-3.11695 -1.93943,-2.56283 0,-10.94397 3.32475,0 14.68432,-13.85313 7.61922,-5.33346 2.07797,0 1.59311,-1.59311 0,-1.52384 3.25548,-4.50227 4.15594,-2.07797 3.67108,3.11695"></path>
<path id="izumo" d="m 203.63293,515.0411 4.29447,0 2.07797,5.05639 0,3.80961 -7.96555,10.04352 -3.60181,0 -1.59311,-1.38531 -6.92657,0 -7.75775,8.79673 0,-6.37244 -1.87017,-8.79673 -3.67108,-3.11696 5.33345,-4.36373 0,-2.28577 -1.87017,-2.4243 5.19492,0 3.80962,-3.46328 6.02611,0 5.88758,-4.98713 2.42429,3.11696 6.44171,0 -2.77063,2.07797 -5.19492,0 -1.73164,1.52384 -5.88758,0 -2.6321,3.32475 3.11696,0 3.32475,-1.93944 3.46328,0 2.07797,1.38532"></path>
<path id="houki" d="m 225.38923,512.2498 -4.29447,-1.38532 -4.84859,0 -2.28577,3.94814 -1.87017,0 -3.80961,-2.90915 -2.28577,0 1.87017,3.25548 2.07797,5.0564 0,3.80961 -6.58023,8.38114 2.70136,2.49356 4.29447,-0.0693 12.12148,-11.4981 14.54579,0 2.56283,-2.4243 0,-3.11695 -3.80961,-5.54125 -10.38985,0"></path>
<path id="oki" d="m 208.69297,467.66659 -3.46875,4.15625 0,3.65625 3.34375,2.09375 2.21875,0.5 3.3125,-2.09375 0,-3.9375 -5.40625,-4.375 z m -10.1875,11.28125 -1.375,0.5 0,3.1875 1.375,1.3125 0,-5 z m 1.53125,0.34375 0,6.03125 3.8125,-3.59375 -3.8125,-2.4375 z m -4.28125,0.625 -1.40625,0.4375 0,2.75 1.40625,1.3125 0,-4.5 z m 2.40625,5.40625 -1.03125,1.03125 0,0.5625 3.125,0 -2.09375,-1.59375 z"></path>
<path id="inaba" d="m 256.44507,512.33006 2.77062,7.48069 0,6.71877 -5.19492,3.32475 -6.58024,0 -5.40272,-6.78803 -3.67108,-1.03899 1.24679,-1.17751 0,-3.11696 -3.80961,-5.54125 2.63209,-1.73164 3.46328,2.07797 1.73164,-1.38531 4.50227,0 5.54125,-4.15594 2.77063,0 0,5.33345"></path>
<path id="tajima" d="m 274.88243,512.83711 4.50227,2.07797 3.80961,0 1.73164,2.56283 -7.27289,5.88758 -0.13853,7.2729 -9.90499,0 -2.4243,-2.4243 -6.02611,0.34633 0,-8.79674 -2.77062,-7.48069 0,-5.33346 4.29447,-1.93944 2.07797,1.38532 12.12148,0 0,6.4417"></path>
<path id="tanba" d="m 308.45264,522.74207 0,9.69719 -7.0651,13.02194 -3.80961,0 -4.8486,-4.15594 -7.48069,0 -3.25548,-1.59311 -4.57154,-6.78803 0.0693,-2.2165 0.13853,-7.2729 7.27289,-5.88758 4.01741,5.40273 2.2165,0 7.61922,-5.0564 9.6972,4.8486"></path>
<path id="tango" d="m 288.17179,510.54992 4.8486,4.50227 5.88758,-5.88758 2.07797,3.11695 -2.28577,1.93944 0,3.60181 -7.61922,5.0564 -2.2165,0 -5.74905,-7.96555 -3.80961,0 -4.50227,-2.07797 0,-6.44171 2.97843,0 5.33345,-4.98712 3.11695,0 0,-1.24679 5.54126,0 1.59311,4.01741 -5.19493,6.37244"></path>
<path id="settsu" d="m 301.25038,545.31013 -3.80961,0 -4.8486,-4.15593 -7.48069,0 -3.74559,19.82046 7.96555,-4.6408 4.64604,-0.28755 3.25549,3.46328 0,2.90916 4.71006,0 2.77063,-11.22104 0,-3.67107 -3.46328,-2.21651"></path>
<path id="izumi" d="m 302.05667,562.41602 -4.71006,0 0,2.97842 -4.8486,5.33346 -11.56736,6.92656 15.37698,-1.73164 4.50226,-7.41142 1.24678,-6.09538"></path>
<path id="yamato" d="m 329.21017,565.25182 -5.67979,0 0,-6.78803 -1.59311,-1.38532 -8.45041,0 -3.67108,-1.38531 -4.29447,6.92657 0,3.11695 1.73165,1.73164 0,14.19946 -6.23391,7.48069 2.2165,3.25548 0,3.32476 4.36373,3.60181 8.65821,0 0,-2.4243 5.19492,-4.15594 3.60182,0 1.59311,-2.77062 0.13853,-13.64534 -2.2165,0 0,-4.71006 1.87017,0 4.15594,-2.77063 -1.38531,-3.60181"></path>
<path id="yamashiro" d="m 313.22232,522.72557 -4.84859,0 0,9.69719 -7.0651,13.02194 3.46328,2.2165 4.98713,7.96555 3.67108,1.38531 8.45041,0 1.59311,1.38532 0,-2.77063 0.48486,-4.15594 -1.38532,0 -6.71876,-3.60181 -1.59311,-4.01741 0,-8.31188 1.73164,0 0,-9.83572 -2.77063,-2.97842"></path>
<path id="kawachi" d="m 307.19538,574.60455 0.19129,-7.11734 -1.66034,-1.88571 0.04,-3.19718 3.99825,-6.51579 -4.69958,-7.39045 -0.28754,3.09598 -2.74976,10.26277 -1.13913,6.27475 -4.4791,7.78783 4.69423,0.11341 2.22344,-1.53025 3.7758,0.20271"></path>
<path id="wakasa" d="m 323.99174,515.30154 -7.75775,5.67979 -2.97842,0 0,1.73164 -4.8486,0 -9.69719,-4.8486 0,-3.60181 2.28577,-1.93944 1.73164,2.07797 3.25548,0 0,1.73164 4.8486,0 -1.87017,-2.90916 0,-1.38531 2.4243,0 1.73164,2.07797 2.2165,-2.28577 0,-3.25548 2.97842,0 0,1.52384 5.67978,0 0,5.40272"></path>
<path id="echizen" d="m 354.77401,492.08641 3.67108,4.15594 0,2.56283 -3.46328,2.28577 -16.62376,0 -4.08667,5.19492 -4.36374,0 0,4.50227 -5.88758,4.50227 0,-5.40272 -2.83989,0 0,-7.0651 2.83989,0 0,3.94814 3.11696,0 0,-6.71877 -4.71007,-3.46328 0,-8.17335 7.2729,-11.91369 4.50226,-2.07797 3.32475,3.11696 0,3.60181 3.80961,2.07797 3.94815,0 4.0174,2.77063 5.47199,0 0,6.09537"></path>
<path id="kaga" d="m 360.17748,445.50671 0,3.32474 -3.67108,5.54125 0,7.96554 1.73164,0 0,3.60182 -2.2165,1.73165 0,7.2729 1.87017,1.38531 0,4.36374 -3.18621,5.33346 -5.47199,0 -4.01741,-2.77063 -3.94814,0 -3.80961,-2.07799 0,-3.60181 -3.32474,-3.11694 2.14722,-2.07797 0,-1.38532 2.90917,0 5.54123,-7.96556 5.74906,-6.92656 5.54125,-12.81413 4.15594,2.2165"></path>
<path id="noto" d="m 370.68651,424.68405 -4.08668,5.19492 -3.80961,-2.56283 -2.28576,5.67979 0,2.28576 4.0174,1.73164 3.60182,-2.77062 0,7.06509 -4.15594,0 -3.74035,4.15594 -4.15594,-2.2165 0,-3.11695 -2.28576,-2.77063 0,-4.84859 -1.24678,-0.69266 0,-4.71006 1.38531,0 0,-5.33346 6.23391,-3.80961 5.74905,0 6.58023,-4.8486 6.58024,0 2.07797,2.07797 0,2.4243 -4.01741,0 0,3.53255 -3.25548,3.53255 -3.18622,0 m -7.34216,9.35086 0,-2.07797 3.80961,0 -1.38531,2.07797 -2.4243,0"></path>
<path id="etchuu" d="m 390.43132,440.68311 3.25549,0 2.97842,6.09538 0,13.5068 -6.78803,11.22104 -2.77063,0 -4.6408,-2.77063 -10.18205,0 -5.05639,5.05639 -1.73164,3.94814 -2.6321,0 0,-3.60181 -3.46328,0 -2.4243,1.52384 -0.96972,-0.69265 0,-7.2729 2.21651,-1.73164 0,-3.60181 -1.73165,0 0,-7.96555 3.67108,-5.54125 0,-3.32475 3.74035,-4.15594 4.15594,0 0,1.93944 -2.07797,1.38531 0,2.90916 5.74905,4.71006 5.33345,0 5.40272,-3.46328 0,-5.05639 7.96555,-3.11696"></path>
<path id="echigo" d="m 468.18609,359.71415 -2.97842,7.27289 -1.87017,11.2903 -4.8486,8.79674 -13.02194,5.88758 -6.71877,6.44171 -2.4243,7.96555 -7.13436,12.81414 -12.95268,9.00454 0,2.07796 -6.58023,0 -5.54126,4.98713 -10.38984,4.50227 2.97842,6.09538 0,4.84859 2.70136,-2.97842 0,-4.29447 6.92657,0 2.07796,3.11695 9.00454,0 7.82702,-9.55866 3.94814,0 2.63209,1.73164 0,4.01741 2.07797,2.2165 0,5.40272 7.2729,0 2.07797,-4.0174 3.11695,0 0,-7.2729 6.02611,-4.15594 4.36374,5.88758 1.73164,0 0,-6.02611 -1.93944,-7.13436 -1.73164,0 0,-6.23391 1.73164,-0.34633 0,-6.99583 1.73164,-1.10825 4.50227,0 2.07797,-2.07797 6.58024,0 0,-6.23391 4.71006,-6.4417 -4.71006,-5.54125 2.42429,-5.67979 0,-8.17334 2.4243,-2.56283 3.46328,0 3.11696,-2.4243 -4.15594,-5.05639 -2.4243,0 0,-5.33346 -8.10408,-4.71006"></path>
<path id="sado" d="m 423.91633,380.25311 0,4.0174 4.15594,0 1.38532,1.38532 -2.77063,5.67978 -4.15594,4.01741 -4.50227,2.90916 -3.67108,0 0,-2.07797 3.11696,-2.4243 1.93944,-3.80961 -1.73164,-2.4243 -2.28577,2.07797 0,-7.0651 7.13436,-8.866 2.4243,-2.2165 2.07797,0 0,2.90916 -3.11696,5.88758"></path>
<path id="iga" d="m 329.81834,548.70276 -4.50227,0 -1.38531,2.90915 -0.48486,4.15594 0,9.55866 5.67978,0 1.38531,3.60181 2.07797,-8.10408 0,-8.31187 -2.77062,-3.80961"></path>
<path id="ise" d="m 348.109,530.84359 -1.87017,-1.93944 -2.97842,0 -2.4243,2.6321 0,7.27289 -6.58024,9.69719 -4.50227,0 2.77063,3.80961 0,8.31188 -2.07797,8.10408 -4.15594,2.77063 -1.87017,0 0,4.71006 2.2165,0 -0.13853,3.94814 7.0651,3.11696 0,1.73164 11.2903,-5.67979 5.33345,-1.93943 4.15594,-4.8486 0,-5.19492 -9.35086,-6.37244 0,-3.25549 -1.52385,0 0,-2.63209 6.92657,-9.69719 2.90916,-6.23391 -3.60182,-4.36374 -1.59311,0 0,-3.94814"></path>
<path id="shima" d="m 358.32252,567.32154 -4.01741,0 0,5.19492 -4.15594,4.8486 3.80962,0 0,3.32475 5.05639,0 0,-5.54125 1.87017,-2.28577 0,-2.90916 -2.56283,0 0,-2.63209"></path>
<path id="owari" d="m 376.11272,527.80552 -9.6972,0 0,-4.50226 -6.78803,0 -5.88758,2.42429 0,2.56283 -2.2165,1.59311 0.0693,7.13436 1.8009,2.21651 5.05639,0 0,1.73164 -1.5931,1.38531 0,5.88758 1.73164,0 0,6.58024 3.46328,2.42429 0,-9.69719 4.36373,-6.58023 3.46329,-2.07797 0,-2.97843 6.23391,-8.10408"></path>
<path id="mikawa" d="m 388.85244,527.39254 0,4.50227 5.05639,0 0,-1.93944 3.60182,0 1.73164,2.07797 0,2.6321 -8.45041,14.89211 -4.84859,2.2165 0,6.92657 -16.48523,5.40272 -4.50227,0 0,-1.93944 3.67108,-3.25549 4.98713,0 5.88758,-2.77062 0,-2.77063 -1.38531,-1.59311 -4.98713,0 0,1.38531 -6.58024,0 -4.50226,-3.25548 0,-2.4243 4.36373,-6.58024 3.46328,-2.07797 0,-2.97842 6.23391,-8.10408 7.75776,3.60181 4.98712,-3.94814"></path>
<path id="toutoumi" d="m 411.53666,523.0565 -12.32928,9.00453 0,2.63209 -8.45041,14.89212 -4.8486,2.2165 0,6.92657 2.90916,-5.67979 2.97842,0 -2.07797,3.46328 3.25549,2.56283 14.54578,0 9.00454,3.32475 0,-5.19492 2.28576,-2.4243 -3.32475,0 -2.07797,-7.13436 0,-2.2165 1.24679,0 0,-15.09991 -3.11696,-2.77063 0,-4.50226"></path>
<path id="suruga" d="m 450.43488,523.74222 -7.13436,-3.80961 0,1.38532 -7.61923,1.73164 -2.90915,-2.77063 -2.4243,0 0,10.25132 -2.4243,1.73164 -2.63209,0 -4.98713,-7.27289 -3.46328,0 0,-5.19493 1.52384,0 0,-5.05639 -3.25548,-5.88758 -3.60182,14.19946 0,4.50227 3.11696,2.77062 0,15.09991 -1.24679,0 0,2.2165 2.07797,7.13437 3.32476,0 4.64079,-9.21234 5.33346,-3.94814 0,-2.28576 5.05639,-3.94815 6.92657,0 3.46328,2.77063 5.33345,-6.23391 -1.52384,-1.73164 0,-2.77063 2.4243,-3.67108"></path>
<path id="izu" d="m 449.53555,531.98206 -5.33346,6.23391 0,2.07796 -5.05639,0 0,14.89212 -1.52384,0 0,2.77063 3.94814,3.60181 3.32475,0 3.94814,-3.94814 4.50227,-9.55866 1.73164,0 0,-4.8486 -2.07797,-2.07797 0,-5.67978 -3.46328,-3.46328"></path>
<path id="sagami" d="m 454.60394,513.01309 -11.2903,6.92657 7.13436,3.80961 -2.4243,3.67108 0,2.77062 4.98713,5.19493 1.93943,-2.07797 0,-3.11696 9.21234,-6.09538 6.37244,0 2.97842,2.28577 2.07797,4.8486 0,3.11695 1.52384,0 0,-4.8486 3.32475,-2.07796 0,-1.59311 -3.67108,0 0,-4.8486 -2.2165,0 -7.82701,-8.10408 -12.12149,-6.23391 0,6.37244"></path>
<path id="kai" d="m 437.08443,495.26306 -2.4243,2.56282 -2.56283,0 0,-2.07796 -5.40272,0 -3.25548,-3.60182 -1.59311,0 -2.07797,4.98713 -2.56283,0 -2.07797,4.15594 0,7.61922 3.25549,5.88758 0,5.05639 -1.52385,0 0,5.19493 3.46328,0 4.98713,7.27289 2.6321,0 2.42429,-1.73164 0,-10.25132 2.4243,0 2.90916,2.77063 7.61922,-1.73164 0,-1.38532 11.2903,-6.92656 0,-6.37244 -7.13436,-3.11696 -4.15594,-6.09537 -6.23391,-2.2165"></path>
<path id="musashi" d="m 486.63034,494.62009 0,9.21233 1.03899,1.73164 0,3.25549 -5.74905,0 0,3.80961 -4.98713,3.67108 0,4.6408 -2.2165,0 -7.82702,-8.10408 -19.25585,-9.35086 -4.15594,-6.09538 -6.23391,-2.2165 0,-3.46329 1.59311,-4.15593 2.97843,0 5.54125,-4.36374 3.11695,0 0,-3.60181 4.29447,-4.22521 13.85313,4.22521 4.8486,0 3.32475,-1.38532 7.41142,16.41596 2.4243,0"></path>
<path id="awa2" d="m 498.86394,534.07859 -7.75775,5.19492 0,3.80961 -3.32475,3.11696 -3.46328,0 -3.11696,-5.54125 4.36374,0 -2.63209,-2.77063 1.38531,-2.77063 -1.73164,-1.38531 0,-3.46328 2.97842,-1.66238 0,2.00871 5.67978,0 0,-1.38532 6.44171,0 7.27289,2.97843 -6.09538,1.87017"></path>
<path id="kazusa" d="m 503.44863,510.85451 -2.97842,1.45458 -5.26419,0 -7.54995,6.30317 0,1.59311 -4.71007,3.60182 0,2.97842 2.6321,0 0,3.94814 5.67978,0 0,-1.38531 6.44171,0 7.27289,2.97842 2.97842,-2.77063 1.03899,-3.11695 0,-4.36374 -1.38532,0 0,-4.64079 3.60182,-6.78804 4.36373,-3.94814 -5.05639,-3.32475 -3.60181,0 -3.46329,7.48069"></path>
<path id="shimousa" d="m 476.8015,478.23456 7.41142,16.41596 2.4243,0 0,9.21233 1.03899,1.73164 3.11695,0 5.19492,4.50227 0,1.52385 -0.76192,0.62339 5.26419,0 2.97842,-1.45458 3.46329,-7.48069 3.60181,0 5.05639,3.32475 4.50227,-2.97842 7.0651,0 0,-2.07797 -15.72331,-7.61922 -6.4417,0 -10.73618,-4.8486 -3.11695,-3.11695 0,-6.71877 -7.0651,-4.71007 -7.27289,3.67108"></path>
<path id="hitachi" d="m 514.03673,440.60409 -4.3125,3.25 -5.53125,0 -3.8125,-3.1875 0,2.84375 1.03125,0 0,20.625 -3.8125,5 -3.09375,-0.34375 -10.40625,5.875 7.0625,4.71875 0,6.71875 3.125,3.125 10.71875,4.84375 6.46875,0 13.90625,6.71875 -11.84375,-20.59375 0,-7.9375 1.875,-1.53125 0,-7.625 c 1.15442,-5.35656 3.74893,-10.72228 7.8125,-16.125 l 0,-2.78125 -5.1875,-3.59375 -4,0 z m -10.53125,40.3125 4.28125,2.40625 4.03125,7.84375 -4.5,-1.25 -8.1875,-3.96875 0,-1.9375 4.375,2.4375 1.875,-2.21875 -1.96875,-1.71875 0.0937,-1.59375 z m 7.75,0.6875 5.53125,9 0.21875,2.78125 -2.09375,-1.75 -3.65625,-6.21875 0,-3.8125 z"></path>
<path id="oumi" d="m 329.81798,506.35409 0,4.5 -13.625,10.15625 -3,0 0,1.75 2.78125,2.96875 0,9.84375 -1.71875,0 0,8.3125 1.59375,4 6.71875,3.625 1.375,0 1.375,-2.90625 9.03125,0 6.5625,-9.71875 0,-7.25 -2.40625,-4.875 2.625,-4.34375 0,-5.34375 -2.15625,-3.375 -2.21875,-0.0937 -0.21875,-3.59375 -2.34375,-3.65625 -4.375,0 z m 0.375,9.34375 0,2.5625 4,5.875 0,2.78125 -4.5,2.0625 -5.0625,4.15625 0,1.9375 -3.59375,0 -3.46875,7.625 0,-5.875 1.75,-3.34375 0,-2.75 4.84375,-5.34375 0.125,-5.875 5.90625,-3.8125 z"></path>
<path id="mino" d="m 363.54936,494.18568 -5.54125,-5.54125 -3.32475,0 0,3.46328 3.67107,4.15594 0,2.56283 -3.46328,2.28577 -16.62375,0 -4.08668,5.19492 2.35503,3.67108 0.2078,3.60181 2.2165,0.0693 2.14724,3.39401 0,5.33346 -2.6321,4.36374 2.4243,4.84859 2.4243,-2.63209 2.97842,0 1.87017,1.93943 0,3.94815 1.59311,0 1.80091,2.14723 -0.0693,-7.13436 2.2165,-1.59311 0,-2.56283 5.88758,-2.4243 6.78803,0 0,4.50227 9.69719,0 7.75775,3.60181 4.98713,-3.94814 2.07797,-2.28576 1.38531,-4.29447 0,-6.09538 -3.32475,0 -1.73164,-2.56283 0,-5.40272 -4.01741,-2.77063 -8.58894,4.15594 -5.40272,0 -2.2165,-1.87017 3.60181,-3.67108 0,-6.37244 -1.52384,-2.07797 -5.54125,0"></path>
<path id="hida" d="m 389.96035,476.80358 0,-5.40272 -2.77063,0 -4.6408,-2.77063 -10.18205,0 -5.05639,5.05639 -1.73164,3.94814 -2.6321,0 0,-3.60181 -3.46328,0 -2.4243,1.52384 0.90046,0.69266 0,4.36374 -3.18622,5.33345 0,2.6321 3.32475,0 5.54125,5.54125 5.54125,0 1.52384,2.07797 0,6.37244 -3.60181,3.67108 2.2165,1.87017 5.40272,0 8.58894,-4.15594 -3.94814,-2.77062 0,-1.52385 2.77063,-3.32475 3.46328,0 5.40272,-7.96555 -3.60181,-4.98713 2.56283,-6.58023"></path>
<path id="shinano" d="m 425.25388,437.9165 -7.82702,9.55866 -9.00453,0 -2.07797,-3.11696 -6.92657,0 0,4.29447 -2.70136,2.97843 0,8.6582 -6.78803,11.22104 0,5.40272 -2.56283,6.58024 3.60181,4.98712 -5.40272,7.96555 -3.46328,0 -2.77063,3.32475 0,1.52385 7.96555,5.54125 0,5.40272 1.73164,2.56283 3.32476,0 0,6.09538 -1.38532,4.29447 -2.07797,2.28576 0,4.50227 5.0564,0 0,-1.93944 3.60181,0 1.73164,2.07797 12.32929,-9.00453 3.60181,-14.19946 0,-7.61922 2.07797,-4.15594 2.56283,0 2.07797,-4.98713 1.59311,0 3.25548,3.60182 5.40272,0 0,2.07797 2.56283,0 2.4243,-2.56283 0,-3.46329 -3.46328,-2.63209 0,-2.77063 -1.38531,-1.38531 0,-7.96555 1.93943,-1.38531 0,-2.56283 -2.28576,-3.46328 -6.37244,0 -2.6321,-3.11696 0,-3.46328 1.93944,-2.77063 3.80961,-3.11695 0,-2.28577 3.60182,0 2.97842,-1.73164 0,-1.87017 -1.38531,0 0,-5.40272 -2.07797,-2.2165 0,-4.01741 -2.6321,-1.73164 -3.94814,0"></path>
<path id="kouzuke" d="m 458.59424,441.6721 4.36373,1.38531 0,4.36374 2.2165,1.38531 -2.07797,1.52384 0,8.51968 4.01741,1.38531 0,2.07797 -3.32475,6.37244 0,3.67108 3.46328,3.46328 5.88758,0 3.67108,2.4243 -3.32475,1.38531 -4.84859,0 -13.85313,-4.2252 -4.29447,4.2252 0,3.60182 -3.11696,0 -5.54125,4.36373 -2.97842,0 -1.59311,4.15594 -3.46329,-2.63209 0,-2.77063 -1.38531,-1.38531 0,-7.96555 1.93944,-1.38531 0,-2.56283 -2.28577,-3.46329 -6.37244,0 -2.63209,-3.11695 0,-3.46328 1.93944,-2.77063 3.80961,-3.11695 0,-2.28577 3.60181,0 2.97842,-1.73164 0,-1.87017 5.88758,0 2.07797,-4.01741 3.11696,0 0,-7.27289 6.02611,-4.15594 4.36373,5.88758 1.73165,0"></path>
<path id="shimotsuke" d="m 493.53746,431.72147 c 1.70855,0.78501 3.39402,1.54693 5.05639,2.28577 l 1.73165,3.80961 0,5.67978 1.03898,0 0,20.64116 -3.80961,4.98713 -3.11695,-0.34633 -17.66275,9.55866 -3.67107,-2.4243 -5.88758,0 -3.46329,-3.46328 0,-3.67108 3.32475,-6.37244 0,-2.07797 -4.0174,-1.38531 0,-8.51968 2.07797,-1.52384 -2.21651,-1.38531 0,-4.36374 15.72331,-8.79674 1.93944,0 4.15593,-4.36373 2.90916,0 5.88758,1.73164"></path>
<path id="mutsu" d="m 517.01932,201.7361 0,5.3248 -2.77063,3.67973 0,4.63214 -2.42429,3.33341 0,5.67113 5.88758,0 6.40707,-1.73164 3.80961,-5.3248 2.77063,2.77063 0.21645,11.16908 -4.3291,7.96555 -2.20784,-3.07366 -3.42,0.0866 -0.21645,-2.16455 -3.54987,-3.24683 -2.68404,2.94379 0,3.63645 1.64506,-0.12987 0,1.86151 -2.64075,2.64075 -2.51088,-0.0433 c -1.68352,-4.79956 -3.09511,-10.14591 -3.63645,-17.22983 l -3.24683,-3.63645 -2.07797,3.24683 -2.8572,0.0433 -5.06505,-6.2772 0.21645,6.88328 -2.29442,2.16455 3.54986,5.41138 -3.03037,10.04352 -5.02176,3.41999 -5.97416,0.0433 0.1298,2.9005 -4.28581,3.41999 0.0434,2.55417 3.8529,3.67974 0.0432,4.8053 7.2296,0.0433 2.07797,-1.99138 6.49366,-0.12988 2.4243,2.16456 7.44605,-0.12988 0.4762,-0.34633 -0.4762,0.38962 3.11696,2.4243 1.73164,7.05644 0,6.58024 2.9005,7.61922 2.20784,0 0,0.21645 0.0866,-0.0433 0,15.06528 -4.71872,9.35086 0,8.65821 3.33341,4.50227 0,13.29034 -5.71442,6.36378 2.07797,8.65821 -1.9048,4.15594 0,4.02607 1.55847,1.73164 0,1.51518 -5.19492,12.12149 0.51949,7.01315 0,0 -1.51518,1.55848 -2.77063,0 -1.55848,1.73164 0,6.23391 -0.0432,0 -4.37239,7.27289 -1.86152,1.73164 -4.02606,0 -9.52403,-2.94379 -5.15163,0 -4.71872,6.40707 0,6.23391 -6.58024,0 -2.07797,2.07797 -4.50227,0 -1.73164,1.12557 0,7.01314 -1.73164,0.34633 0,6.23391 1.73164,0 1.9481,7.09973 0,6.06074 4.37239,1.38532 15.71465,-8.83137 1.94809,0 4.15594,-4.32911 2.9005,0 5.88758,1.73165 2.51088,1.08227 0.0432,0 2.55417,1.16886 1.73164,3.80961 0,2.85721 3.80962,3.16024 5.54125,0 4.28581,-3.24682 4.02607,0 5.19492,3.59315 -0.0432,-4.63214 5.02176,0 0,-8.6582 2.77062,-6.7967 0,-14.89211 -1.38531,-6.36378 -4.50227,-13.72326 0,-7.61922 -0.0432,-0.0432 2.94379,-7.2729 2.9005,-3.11695 0,-4.15594 4.37239,0 0,-2.9005 6.23391,0 4.67543,4.28581 0,3.46329 2.4243,-1.73165 2.4243,0 -4.15594,-6.2339 0,-4.97847 1.90481,0 0,-1.38532 -1.55848,-1.60176 0,-3.59316 -2.4243,0 0,-1.9481 2.77063,-1.86151 0,-4.50227 4.3291,-4.15594 0,-4.71872 1.55848,-1.86151 2.77062,0 3.98278,-2.07797 0,-4.50227 3.63644,-4.06936 -1.60176,-1.73164 0,-2.29442 2.42429,-1.73164 -3.11695,0 2.07797,-5.54126 1.73164,0 0,-2.77062 2.07797,-2.4243 0,-2.9005 -2.07797,-2.64075 -3.24683,0 0,-3.80961 2.07797,0 0,-8.09543 -2.29442,-2.64075 0,-4.50227 -2.4243,0 -2.55417,-2.42429 0,-2.77063 1.38531,0 0,-2.20784 -2.77062,-1.9481 0,-4.50227 -7.14302,-9.1344 -0.0432,0.0866 -3.20353,-3.67974 -3.11696,0 -4.67543,-9.69719 -0.0432,-5.19492 -1.55848,-5.15164 -0.21645,-8.31187 1.73164,-2.16456 0,-10.6063 1.25544,0 0,-5.88758 -1.90481,0 -3.46328,3.33341 -5.36809,0 -1.9048,-3.46328 -5.19492,-2.29443 -3.63645,-3.59315 z"></path>
<path id="dewa" d="m 490.91449,261.08804 -1.94809,2.20785 -7.7491,0 2.9005,3.11695 0,10.38985 -5.49796,9.78377 -5.71441,0 0,4.76201 2.20784,1.9481 2.64075,0 0,-2.07797 5.19493,0 2.20784,2.9005 1.60177,9.91365 0,4.97846 -2.64076,10.60631 -3.93948,3.46328 0,9.00453 -1.4719,6.01746 -1.38531,7.14302 -9.13441,10.73617 0,3.59316 8.09543,4.71872 0,5.3248 2.42429,0 4.15594,5.06505 -3.11695,2.4243 -3.46328,0 -2.4243,2.55417 0,8.182 -2.4243,5.67113 4.71872,5.54125 5.10835,0 9.56731,2.98708 4.02607,0 1.86151,-1.73164 4.3724,-7.27289 0,-6.23391 1.51518,-1.73164 2.77063,0 1.60177,-1.51519 -0.56279,-7.01315 5.19493,-12.12149 0,-1.51518 -1.51519,-1.73164 0,-4.02607 1.86152,-4.15594 -2.07797,-8.6582 5.7577,-6.36379 0,-13.37692 -3.33341,-4.50227 0,-8.65821 4.71873,-9.35086 0,-15.23844 -2.29443,0 -2.9005,-7.61923 0,-6.58023 -1.73164,-7.05644 -3.11695,-2.4243 -7.61922,0 -1.73165,-2.07797 -6.71011,0 z"></path>
<path id="ezo" d="m 516.3308,164.64171 c 6.74887,-4.84261 18.16518,-26.35993 37.72277,-12.40012 0.76175,1.34946 2.3347,2.35126 6.03449,2.44157 4.62395,5.66917 8.40387,7.11825 12.2069,8.68286 5.59191,3.6089 12.44895,5.48706 18.04085,6.71546 6.00937,1.32011 6.43953,6.42693 12.03143,8.78843 2.68875,-0.73737 -1.35233,-4.79129 2.03418,-5.57274 1.87695,-0.9075 0.91659,-9.67668 -1.63391,-12.03141 1.90908,-5.37556 8.82131,-18.10311 12.82216,-22.76742 4.28863,-4.99983 17.04652,-16.66384 24.19536,-16.67567 16.20148,-0.26308 10.89555,4.57869 16.34333,2.05733 -6.7657,-8.7102 11.92191,-10.38794 1.54167,-5.06323 1.69352,2.39821 4.87722,0.82465 6.96308,1.26116 4.7225,-5.12052 1.7609,-10.02169 7.21139,-7.33922 1.18045,-0.98529 -0.20985,-5.79893 11.24566,-3.62282 -3.68936,-6.0499 11.23443,-8.5055 8.65183,-12.382778 -7.85421,0.557069 -8.38004,7.122478 -13.24711,6.539758 -2.35272,-0.2246 -4.58541,2.15609 -7.74799,-13.41453 3.74382,0.3209 9.42417,-1.555259 -3.16178,-3.456131 -7.29795,-2.099502 -2.78745,-18.704864 0.88453,-21.48092 2.43001,-7.143016 3.93202,-13.598001 2.34987,-14.649196 -1.87719,1.628006 -7.97508,11.481013 -12.51668,15.372987 -4.46427,3.825707 -3.43236,7.804193 -6.85512,8.054712 -11.95015,1.960068 -17.81004,-1.802144 -19.7348,-8.083622 -6.23634,-0.395155 2.46459,0.959097 -1.84504,-0.225168 1.2174,2.099619 -4.00858,10.65298 -2.87365,-0.104578 -1.07737,-2.492046 -0.16261,0.207389 -5.19073,-0.687704 -2.14166,5.750088 -14.75333,-0.247741 -8.90324,-2.170738 C 601.93854,60.319164 593.60293,50.442331 585.87759,47.53833 574.17022,36.036045 564.79666,20.910442 551.20023,6.8836452 548.44921,3.220045 545.2644,0.71319096 541.25113,0.41559525 542.04163,5.2309557 534.9322,2.1011153 530.71726,14.554125 c 6.57368,17.216918 10.48027,26.005483 8.36539,32.444939 1.31212,7.033783 -2.13719,11.90209 -3.33535,13.31892 -2.82879,3.345053 2.61891,11.77934 0.29474,17.078858 6.22691,-3.72329 3.63157,8.91041 -4.19419,6.452001 -9.44548,5.786025 -5.80337,6.037059 -6.61353,8.502091 0.81538,2.200732 0.92661,5.809763 2.88004,5.734403 -4.21967,2.153833 2.91622,5.820133 1.08358,14.089223 -7.10757,9.04896 -6.38177,9.8559 -13.77667,6.99492 1.22928,-5.74122 -4.88343,-0.0151 -8.94157,-0.28325 -1.41351,-1.31638 -8.52894,-6.51477 -11.18202,-8.44618 -1.62084,0.2046 1.10389,3.46247 -5.04309,2.29969 -4.42517,8.064 2.73193,8.04747 7.19886,16.86492 -2.74904,1.21891 -6.1914,1.7713 -8.01892,11.61894 -3.85378,0.34373 -2.15993,-4.64322 -5.78973,-2.54392 0.7212,7.9226 -8.02962,5.60935 -12.22993,11.01615 4.42362,15.61008 -4.51519,12.70088 -0.83846,18.86738 2.03629,3.11477 4.81618,-0.70993 5.10798,5.7573 5.60416,2.12631 7.51053,5.1462 8.90499,9.01927 1.08272,3.78434 -0.85687,6.3042 -1.88409,8.97727 -4.18103,6.80862 -2.71284,12.81021 -1.11931,18.79389 7.8566,-2.44055 8.91236,3.1593 7.8312,0.45027 -1.07059,-10.23792 9.58079,1.38037 7.31087,-15.57569 3.80286,-0.008 6.7829,-1.63951 6.39565,-7.50976 l 4.61206,4.15469 c 4.97768,-1.6977 8.19848,0.11837 11.09122,2.59053 1.8336,-1.98352 3.62085,-3.85117 6.27291,-7.88083 l -8.29189,-4.62339 c -1.69063,-4.29268 -6.61086,-6.73988 -11.13952,-9.41083 l -5.1904,1.31673 c -3.30099,-2.53896 -5.65865,-6.02123 -10.89041,-6.62941 0.50502,-3.35378 1.43847,-18.76505 10.05943,-16.11777 8.10905,-5.36832 7.18967,2.80601 10.67481,4.37355 1.96855,3.24484 3.66517,10.02487 6.00889,8.39267 z M 0,0 m 693.47166,49.626347 c 1.39024,-4.41316 1.38341,-8.920562 5.6415,-11.285263 3.0055,0.260855 3.53736,2.170797 4.07361,4.077822 15.9571,1.678528 7.05174,-4.465942 12.02332,-2.549772 -3.03596,11.120868 -3.14802,-0.977368 -9.37069,10.576071 -8.98224,-1.009183 -7.23912,7.41094 -12.49982,7.025268 -2.69771,3.798424 -0.10928,8.701519 -4.22615,7.128254 0.0422,9.099869 -3.26885,5.181242 -5.50571,7.468779 -4.22161,0.173934 -0.94742,9.663644 -2.2344,11.783414 -0.67392,-2.527308 -2.20089,-3.775059 -5.39888,-2.516264 l -1.64275,-5.36324 c 2.79857,-5.791909 5.53496,-5.289287 11.54836,-12.143209 -0.0436,-1.338697 1.08342,-5.784418 3.44151,-7.861483 0.6189,-3.074806 1.83054,-3.351031 4.1501,-6.340377 z M 0,0 m 723.03595,70.641039 c 1.13165,-0.33419 2.74605,-3.27073 4.5849,-3.27073 1.96983,0.48612 1.46991,3.08305 3.76966,4.18524 -2.03863,-0.49092 -4.81324,2.79227 -5.15127,3.47055 -2.45891,1.78955 -4.3865,6.612141 -7.40572,0.58231 -0.33469,-1.33885 -0.43272,-1.11536 -0.43272,-2.53762 0,-1.6152 3.25649,-1.74042 4.63515,-2.42975 z M 0,0 m 522.25488,20.019979 c -1.19937,2.11496 -11.97951,0.71165 -5.15002,-6.22517 4.5067,-0.52196 5.88955,2.77688 5.15002,6.22517 z M 0,0 m 511.7057,12.194429 c -1.19937,2.11496 -4.70495,-8.6187703 -0.0895,-8.4391703 1.97642,2.79904 1.46156,7.5211603 0.0895,8.4391703 z M 0,0 m 702.33685,92.110876 c 1.13165,-0.33419 -2.6308,-4.061444 -0.79195,-4.061444 1.96983,0.48612 4.7909,-0.870517 4.71851,0.706101 -0.53047,0.654677 -0.41018,1.471712 0.22558,2.363552 -2.70107,2.152794 -3.21859,-0.753784 -3.92658,3.745164 -1.43207,0.49011 -2.99834,1.47382 -2.963,-0.007 0.0385,-1.61474 1.35878,-2.056706 2.73744,-2.746036 z M 0,0 m 697.15213,95.197439 c -2.14371,0.64825 -3.86812,-0.74018 -3.35835,-2.221337 3.88003,-0.993415 3.17457,1.571137 3.35835,2.221337 z M 0,0 m 711.29765,83.789751 c -1.43207,0.252899 -3.39369,0.05054 -2.88392,-1.430622 1.58696,-1.942271 3.33271,0.22692 2.88392,1.430622 z M 0,0 m 456.58672,170.60937 c 1.96983,0.48612 3.48273,-2.61996 5.78248,-1.51777 1.08805,2.7792 -3.14899,0.33431 -1.68473,8.27897 -2.45891,1.78955 -1.47908,3.03379 -4.27465,1.36508 -1.4245,-3.61177 -0.18926,-5.55436 0.1769,-8.12628 z"></path>
<!--order of paths: ezo,kunashiri,shikotan,risiri,rebun,shibotsuto&yuri,suishou,taraku,okushiro-->
  <path
     id="lake-inawashiro"
     style="fill:#fcf5e3;fill-opacity:1;stroke:#787878;stroke-width:0.8311879;stroke-linecap:butt;stroke-linejoin:miter;stroke-miterlimit:4;stroke-opacity:1;stroke-dasharray:none;display:inline"
     transform="translate(485.71307,412.50511)" 
      d="M 3.722158,5.622907 C 3.1879566,5.4217871 2.311366,5.5395559 2.1564976,4.8354302 1.9304365,4.2531473 1.3955543,3.86906 1.1884399,3.280003 0.90028954,2.6519506 0.18779276,2.1707921 0.27864868,1.4073596 0.52942321,0.90795866 1.2468804,0.99518997 1.5360988,0.50415302 2.0527566,0.10735075 2.7340144,0.20319903 3.3408542,0.21147973 3.9683261,0.25417874 3.7957139,1.0488629 4.1776054,1.371203 4.6164311,1.5714879 5.3072812,1.6108686 5.3755144,2.2407172 5.3337796,2.8676799 5.3821275,3.5006078 5.3393323,4.1280505 5.2204098,4.78692 4.697004,5.342664 4.0896829,5.5913353 3.971014,5.6262823 3.8450993,5.6397287 3.722158,5.622907 Z"
     ></path>       
     </g>    

<!-- Scale bar-->
<g transform="translate(630 750)">
 <rect
           width="44.832802"
           height="4.5"
           x="0"
           y="0"
           style="fill:black;stroke:black"
           />
 <rect
           width="44.832802"
           height="4.5"
           x="44.832802"
           y="0"
           style="fill:white;stroke:black"
           />
<text x="44.832802" y="18" style="font-size:11px;" dominant-baseline="middle" text-anchor="middle">km</text>                      
<text x="0" y="-10" style="font-size:11px;" dominant-baseline="middle" text-anchor="middle">0</text>
<text x="89.665604" y="-10" style="font-size:11px;" dominant-baseline="middle" text-anchor="middle">200</text>
</g>
<!-- JavaScript -->
<script><![CDATA[

        // Mouse over province => kanji is marked
        function kanjiSquareOn(clicked_id) {
            document.getElementById(clicked_id+"Square").style.display = "block";
        }
        function kanjiSquareOff(clicked_id) {
            document.getElementById(clicked_id+"Square").style.display = "none";
        }    

        // Show kanji => rectangles and kanji numbers are not shown
        function showAll() {
            var el = document.getElementsByClassName("ans")
            for(var i = 0; i < el.length; i++){
                el[i].style.display = "none";
            }
	    document.getElementById("hideAll").style.display = "block";
	    document.getElementById("showAll").style.display = "none";
        }
        // Hide kanji => rectangles and kanji numbers are shown on top
        function hideAll() {
            var el = document.getElementsByClassName("ans")
            for(var i = 0; i < el.length; i++){
                el[i].style.display = "block";
            }
	    document.getElementById("hideAll").style.display = "none";
	    document.getElementById("showAll").style.display = "block";
        }   

        function toggleKanji(clicked_id) {
            id = clicked_id.slice(-2)
            var style = document.getElementById("kanjiCoverRect"+id).style.display;
            if (style === "none"){
                document.getElementById("kanjiCoverRect"+id).style.display = "block";
                document.getElementById("provinceLabel"+id).style.display = "block";
                document.getElementById("kanjiLabel"+id).style.display = "block";
            }
            else {
                document.getElementById("kanjiCoverRect"+id).style.display = "none";
                document.getElementById("provinceLabel"+id).style.display = "none";
                document.getElementById("kanjiLabel"+id).style.display = "none";
            }
        }        
]]></script>
</svg>
